<svg id="Calque_1" data-name="Calque 1" xmlns="http://www.w3.org/2000/svg" viewBox="0 0 383.1 335.28"><defs><style>.cls-1{fill:#63dbff;}.cls-2{fill:#3f3d56;}</style></defs><path class="cls-1" d="M30.45,161.29c.58-2.66,1.09-5.35,1.76-8a63.06,63.06,0,0,1,14.63-27A9,9,0,0,0,49,120.81c.13-29.44.09-58.88.1-88.32,0-1.25-.07-2.51.05-3.74a6.34,6.34,0,0,1,6.16-5.89,6.44,6.44,0,0,1,6.38,5.26,21,21,0,0,1,.15,3.73q0,38.93,0,77.84v4.6c1.15-.42,2-.65,2.85-1a62.71,62.71,0,0,1,24.11-6.06,8.24,8.24,0,0,0,5.23-2.6q36.64-43,93.08-43.43,35-.25,70,0,56.24.41,92.67,43.37a6.77,6.77,0,0,0,5.63,2.85A55.86,55.86,0,0,1,378.86,113c1,.46,2,.87,3.38,1.47V110c0-26.32,0-52.64.07-79,0-2,.4-4.61,1.68-5.81,1.48-1.38,4.45-2.48,6.19-1.9,1.93.63,3.4,3.16,4.65,5.13.57.89.16,2.43.16,3.68,0,29.56,0,59.13.1,88.69a9,9,0,0,0,2.17,5.48c10.45,11.6,16.26,25.12,16.29,40.71,0,12.82-.7,25.64-1.36,38.45-.13,2.66-1.27,5.32-2.2,7.88-1.36,3.76-4.54,5.37-7.94,4.26s-5.22-4.2-4.09-8c4.81-16.29,3.61-32.93,2.07-49.38-1.76-18.82-18.44-35.64-37.2-39.21a1.07,1.07,0,0,0-.63,0c3.28,8.46,7.11,16.83,9.79,25.55,6.35,20.73,6.51,41.73,1.29,62.77-1.07,4.27-4.22,6.52-7.81,5.68-3.79-.88-5.66-4.33-4.55-8.83,6.15-25.05,4.25-49.49-7.53-72.43-20.07-39.11-52.61-59.1-96.59-59.86-23.19-.4-46.4-.2-69.6,0C137.3,74.22,96,105.75,83.41,153c-16,59.73,24.24,121.51,85.35,131.15,3.17.5,6.37.82,10.12,1.3,0-1.81,0-3.26,0-4.72.11-8.1-.29-16.25.47-24.29a26.35,26.35,0,0,1,25-24.12c16.81-.66,33.67-.3,50.51-.35,8.46,0,8.73-.07,8.23-8.74a49,49,0,0,0-2.45-12c-2.09-6.5-.1-9.94,6.58-10.43,20.88-1.52,38.22,8.92,46.51,28.2,1,2.38,2.29,3,4.73,3q29.76-.14,59.51,0c14.62.07,25.61,8.54,28.61,22a34.81,34.81,0,0,1,.63,7.43q.06,33.5,0,67c0,18.05-11.74,29.68-29.78,29.68q-84.76,0-169.53,0c-15.6,0-27.29-10.52-28.81-25.73-.48-4.87,1.69-8.15,5.68-8.56,3.77-.38,6.34,2.21,7,7,1.28,9.51,7,14.51,16.71,14.51H377.59c10.64,0,16.78-6.05,16.8-16.61q.06-33.69,0-67.37c0-10.65-6-16.56-16.79-16.58q-32.19,0-64.37,0c-6.75,0-7.7-.78-9.86-7.2-4.21-12.53-12.39-20.82-25.6-23.61a11.52,11.52,0,0,0-1.85-.21c-.21,0-.44.16-.95.36a49.42,49.42,0,0,1-1.11,23.51c-1.83,6.09-3.15,7.14-9.58,7.15q-27.51,0-55,0c-11.86,0-17.58,5.78-17.6,17.74,0,9.11,0,18.21,0,27.32,0,6.53-2,8.51-8.48,8.45C128.47,297.77,79.79,257,69.35,203q-8.13-42,12.12-79.63c.35-.66.68-1.32,1.36-2.67-2,.45-3.49.71-4.94,1.13A47.73,47.73,0,0,0,43.3,166.62c-.19,11-.24,22,.6,32.89s6.14,20.13,14,27.81c.63.61,1.29,1.18,1.89,1.82,2.67,2.9,2.78,6.43.3,9a6.41,6.41,0,0,1-9.09.11,59.22,59.22,0,0,1-18.31-29.4c-.84-3.11-1.47-6.28-2.2-9.42Z" transform="translate(-30.45 -22.86)"/><path class="cls-1" d="M222.21,102.09c13.47,0,26.95-.24,40.41,0,38.69.83,71.94,32.61,74.89,71.14a81.09,81.09,0,0,1-3.32,30.28c-1.57,5.15-4.73,7.32-8.59,6s-5.17-4.68-3.6-9.87c10.88-36.09-9.56-73.25-45.77-82.74a68.79,68.79,0,0,0-16.61-2.09c-25.07-.22-50.14-.17-75.21-.08a65.29,65.29,0,0,0-63.87,51.35c-6.66,29.58,8.41,60,36.3,73.17,5.11,2.42,6.73,4.71,5.85,8.25-1.1,4.34-5,6.16-9.36,4.2-18.15-8.1-31.72-21-39.89-39.17-21.09-46.88,6.62-99.89,57.23-109.34,6.43-1.21,13.15-1.08,19.74-1.2,10.6-.18,21.2,0,31.8,0Z" transform="translate(-30.45 -22.86)"/><path class="cls-2" d="M260.2,160.79c-2.7,2.9-5,5.54-7.45,8-3.16,3.12-6.95,3.29-9.6.67s-2.52-6.45.54-9.61c3.82-3.94,7.69-7.83,11.64-11.63,3.44-3.3,6.7-3.26,10.15.09q5.91,5.73,11.64,11.63c3.12,3.22,3.2,6.86.4,9.59-2.57,2.5-6.21,2.31-9.33-.54-1.29-1.17-2.53-2.4-3.75-3.65S262.05,162.77,260.2,160.79Z" transform="translate(-30.45 -22.86)"/><path class="cls-2" d="M184,160.57c-3.24,3.37-5.66,6.07-8.27,8.57-2.9,2.78-6.84,2.77-9.34.18s-2.51-6.12.28-9q6.07-6.34,12.43-12.43c3-2.86,6.28-2.85,9.31,0q6.36,6.06,12.43,12.43a6.29,6.29,0,0,1,.19,9.05c-2.45,2.52-6.17,2.67-9,0S186.93,163.83,184,160.57Z" transform="translate(-30.45 -22.86)"/><path class="cls-2" d="M253.39,299.83c-5.82,0-9.3-3.47-7.93-8,1-3.44,3.64-4.76,7.16-4.76,5.28,0,8,1.18,8.95,4.38C262.72,295.21,260.69,300.5,253.39,299.83Z" transform="translate(-30.45 -22.86)"/><path class="cls-2" d="M293.42,299.83c-5.26,0-8.38-2.41-8.33-6.43s3.21-6.37,8.82-6.32c5,0,8,2.45,7.92,6.44S298.79,299.84,293.42,299.83Z" transform="translate(-30.45 -22.86)"/><path class="cls-2" d="M333.37,299.83c-5.17,0-7.81-1.83-8.2-5.66-.42-4.06,2.3-6.9,6.78-7.09,6.35-.27,9.85,2,9.83,6.42C341.75,297.52,338.68,299.83,333.37,299.83Z" transform="translate(-30.45 -22.86)"/></svg>