<?xml version="1.0" standalone="no"?>
<!DOCTYPE svg PUBLIC "-//W3C//DTD SVG 20010904//EN"
 "http://www.w3.org/TR/2001/REC-SVG-20010904/DTD/svg10.dtd">
<svg version="1.0" xmlns="http://www.w3.org/2000/svg"
 width="766.000000pt" height="766.000000pt" viewBox="0 0 766.000000 766.000000"
 preserveAspectRatio="xMidYMid meet">
<metadata>
Created by potrace 1.14, written by Peter Selinger 2001-2017
</metadata>
<g transform="translate(0.000000,766.000000) scale(0.100000,-0.100000)"
fill="#000000" stroke="none">
<path d="M435 7161 c-65 -44 -61 16 -63 -1019 -1 -1056 5 -968 -81 -1071 -64
-78 -100 -131 -144 -211 -42 -78 -98 -223 -112 -287 -2 -10 -10 -47 -19 -83
-13 -53 -16 -136 -16 -448 0 -412 5 -467 63 -642 26 -78 120 -269 147 -298 11
-12 20 -24 20 -28 0 -16 171 -197 205 -216 58 -33 141 -11 176 45 38 63 23
103 -81 212 -42 44 -90 100 -106 125 -16 25 -32 47 -35 50 -3 3 -22 39 -42 80
-33 69 -58 146 -72 225 -24 140 -25 835 0 875 2 4 7 21 10 38 16 91 90 250
158 342 55 74 170 185 234 226 104 66 234 122 326 139 43 8 44 9 -10 -94 -18
-35 -33 -70 -33 -77 0 -8 -4 -14 -9 -14 -5 0 -15 -17 -21 -37 -7 -21 -21 -58
-32 -83 -11 -25 -21 -49 -23 -55 -1 -5 -5 -17 -8 -25 -26 -65 -80 -258 -92
-330 -3 -19 -7 -46 -10 -60 -39 -208 -41 -552 -4 -765 11 -63 11 -65 23 -130
17 -88 83 -303 116 -380 57 -133 124 -268 151 -307 11 -14 19 -29 19 -32 0
-10 143 -217 175 -252 5 -6 28 -33 50 -59 101 -122 299 -304 450 -413 94 -68
283 -174 416 -232 124 -55 346 -127 404 -132 6 0 20 -4 33 -9 13 -5 45 -12 70
-15 26 -3 65 -9 87 -14 54 -12 203 -23 296 -23 90 1 125 15 153 62 18 32 20
55 21 390 1 196 6 370 10 386 13 49 51 118 82 147 31 30 100 63 153 74 19 4
314 8 655 9 341 1 631 5 644 9 64 22 103 105 128 276 7 50 8 195 2 280 l-4 55
34 -3 c49 -4 177 -50 235 -85 81 -48 186 -162 233 -253 22 -43 48 -99 56 -124
20 -59 39 -102 52 -116 36 -37 40 -38 785 -40 399 -1 739 -5 755 -9 48 -10
114 -46 146 -79 31 -32 69 -102 69 -129 0 -9 4 -18 8 -21 4 -2 8 -348 7 -768
l0 -763 -29 -63 c-42 -90 -115 -148 -216 -168 -19 -4 -816 -8 -1770 -8 -1409
-1 -1746 1 -1795 12 -127 28 -216 123 -232 247 -15 116 -67 177 -145 170 -76
-8 -113 -55 -113 -144 0 -241 162 -446 410 -520 70 -21 71 -21 1880 -18 1736
2 1812 3 1865 21 171 57 267 136 335 272 68 136 67 134 68 959 0 407 -3 759
-6 783 -33 217 -160 372 -370 451 -73 28 -183 32 -794 33 -450 0 -638 4 -655
12 -12 6 -39 41 -58 77 -94 176 -85 164 -195 275 -136 138 -284 214 -478 248
-93 16 -258 14 -309 -3 -78 -26 -97 -95 -59 -216 11 -33 22 -78 25 -100 4 -22
9 -55 13 -74 8 -45 8 -140 0 -173 -4 -16 -17 -30 -34 -36 -16 -5 -233 -10
-513 -10 -640 -1 -680 -4 -788 -44 -152 -56 -269 -185 -316 -348 -21 -75 -26
-142 -27 -412 0 -128 -3 -241 -5 -250 -3 -11 -12 -15 -27 -12 -12 2 -42 6 -67
9 -42 5 -167 24 -200 30 -93 18 -352 100 -405 128 -11 6 -22 12 -25 13 -37 9
-201 100 -305 170 -190 126 -319 246 -505 470 -46 55 -197 296 -199 317 0 4
-11 26 -25 50 -77 133 -158 396 -201 652 -11 66 -15 474 -4 481 5 3 7 9 4 14
-5 8 9 99 28 195 3 11 8 38 11 59 18 95 152 455 188 502 4 6 22 37 39 70 29
54 120 194 144 220 5 6 24 29 40 50 309 397 810 685 1330 765 187 29 292 32
1030 32 718 1 877 -3 1030 -27 17 -3 52 -8 80 -12 27 -3 102 -19 165 -35 63
-16 120 -31 127 -32 7 -2 16 -6 19 -10 4 -4 14 -7 23 -7 9 0 50 -14 91 -30
354 -144 613 -341 863 -657 31 -40 57 -77 57 -82 0 -6 5 -11 10 -11 6 0 10 -7
10 -15 0 -8 5 -15 10 -15 6 0 10 -6 10 -14 0 -8 3 -16 8 -18 11 -4 88 -137
142 -243 86 -168 137 -314 175 -502 50 -244 53 -432 10 -753 -3 -25 -13 -74
-21 -110 -25 -110 -26 -131 -9 -175 37 -98 180 -101 222 -5 17 39 48 171 63
265 34 222 34 543 1 725 -6 30 -12 67 -15 82 -3 15 -14 67 -27 115 -12 48 -22
92 -23 98 -1 5 -4 15 -7 20 -4 6 -14 35 -24 65 -10 30 -48 132 -85 225 -92
231 -90 219 -48 210 18 -4 57 -16 85 -27 29 -11 55 -19 58 -18 9 1 137 -70
184 -103 24 -16 81 -66 126 -111 170 -167 251 -338 270 -571 15 -195 19 -268
19 -400 -1 -218 -10 -309 -50 -469 -26 -105 -26 -138 0 -178 35 -54 122 -70
173 -32 25 19 70 84 58 84 -3 0 1 13 10 30 8 16 15 32 15 35 0 3 0 6 1 8 16
54 32 402 33 727 1 219 -2 279 -17 344 -32 142 -79 260 -144 364 -18 29 -33
54 -33 57 0 3 -6 13 -14 22 -111 136 -138 173 -146 204 -6 21 -10 394 -10 961
l-1 926 -28 38 c-40 55 -57 67 -96 66 -62 -2 -108 -38 -123 -92 -2 -8 -5 -399
-6 -867 -1 -469 -4 -855 -7 -857 -2 -3 -32 9 -67 25 -132 61 -263 95 -402 105
-105 7 -137 18 -175 63 -67 82 -296 302 -380 366 -49 39 -91 73 -93 77 -2 5
-7 8 -12 8 -7 0 -95 54 -126 77 -25 19 -187 104 -269 140 -189 84 -410 144
-660 178 -113 15 -289 19 -985 19 -682 0 -1018 -6 -1039 -18 -3 -2 -28 -6 -56
-10 -27 -3 -60 -8 -71 -10 -12 -2 -38 -7 -59 -10 -20 -4 -41 -8 -45 -11 -3 -2
-22 -7 -41 -10 -19 -3 -42 -8 -51 -11 -9 -3 -25 -7 -35 -9 -32 -6 -207 -65
-240 -80 -17 -8 -34 -15 -37 -15 -6 0 -197 -94 -246 -122 -25 -13 -47 -27
-125 -77 -158 -101 -348 -266 -499 -435 -68 -76 -100 -96 -160 -102 -183 -18
-278 -41 -428 -102 -95 -39 -98 -40 -98 -19 0 12 -1 400 -1 863 -1 917 2 882
-57 920 -41 27 -101 29 -137 5z"/>
<path d="M3538 5605 c-1 -1 -147 -5 -323 -8 -176 -3 -331 -8 -345 -11 -13 -3
-40 -8 -60 -11 -35 -5 -74 -13 -95 -19 -5 -2 -23 -6 -40 -10 -121 -31 -333
-124 -433 -191 -30 -19 -56 -35 -59 -35 -2 0 -10 -6 -17 -12 -7 -7 -28 -24
-47 -38 -75 -56 -181 -158 -247 -240 -21 -25 -40 -46 -44 -48 -5 -2 -8 -10 -8
-17 0 -7 -4 -15 -9 -17 -20 -7 -123 -192 -182 -323 -10 -24 -59 -172 -65 -197
-2 -10 -6 -26 -8 -37 -2 -10 -7 -36 -10 -57 -4 -22 -8 -46 -11 -54 -16 -55
-21 -222 -12 -365 19 -276 131 -576 304 -813 58 -79 181 -207 258 -269 144
-115 360 -235 430 -239 72 -3 119 37 131 113 9 62 -22 96 -151 166 -105 56
-200 119 -256 169 -81 72 -109 99 -155 153 -209 244 -315 542 -309 870 3 214
46 382 146 573 104 201 240 353 434 490 38 26 237 131 250 131 3 0 36 10 73
22 91 28 184 48 262 56 86 8 1620 8 1735 0 369 -25 693 -195 933 -489 34 -42
62 -79 62 -81 0 -3 17 -34 38 -68 72 -121 122 -252 158 -414 17 -76 24 -332
11 -415 -7 -44 -10 -59 -24 -130 -9 -45 -7 -38 -22 -90 -35 -120 2 -191 106
-204 42 -6 88 26 119 82 13 23 22 42 19 42 -2 0 2 18 10 40 8 22 12 40 10 40
-3 0 0 11 5 25 42 111 56 467 25 625 -21 109 -31 146 -56 223 -87 263 -238
488 -464 694 -60 54 -198 153 -214 153 -5 0 -11 4 -13 8 -3 8 -112 71 -125 73
-5 1 -26 9 -48 19 -115 51 -248 91 -345 105 -14 2 -25 4 -25 5 0 8 -166 12
-674 15 -326 2 -599 6 -606 9 -7 2 -15 3 -17 1z"/>
<path d="M3028 4715 c-50 -17 -321 -288 -337 -337 -17 -50 -7 -87 33 -126 29
-30 41 -35 80 -35 57 0 75 12 181 121 l85 87 87 -94 c48 -52 102 -100 119
-107 102 -43 207 72 157 171 -13 25 -223 242 -289 298 -33 28 -76 36 -116 22z"/>
<path d="M4562 4717 c-35 -11 -273 -237 -322 -306 -78 -111 53 -249 168 -176
25 17 47 39 149 148 l36 38 85 -86 c87 -88 139 -123 180 -119 12 1 28 2 35 3
33 3 87 75 87 115 0 49 -23 82 -148 208 -174 177 -202 195 -270 175z"/>
<path d="M4361 1883 c-49 -24 -78 -92 -62 -145 17 -54 69 -87 146 -92 70 -4
110 6 141 35 55 51 52 148 -6 189 -41 29 -171 37 -219 13z"/>
<path d="M5189 1891 c-70 -23 -105 -73 -94 -138 13 -83 94 -121 217 -102 53 9
107 51 109 86 0 10 2 27 4 38 5 27 -22 81 -51 100 -27 18 -147 28 -185 16z"/>
<path d="M5958 1881 c-20 -9 -41 -32 -52 -55 -17 -34 -18 -45 -7 -84 15 -56
32 -73 90 -88 92 -23 190 3 221 61 44 81 -11 168 -111 179 -77 8 -105 6 -141
-13z"/>
</g>
</svg>
